<mxfile host="app.diagrams.net" modified="2024-05-15T16:24:26.845Z" agent="Mozilla/5.0 (Windows NT 10.0; Win64; x64) AppleWebKit/537.36 (KHTML, like Gecko) Chrome/121.0.0.0 Safari/537.36 OPR/107.0.0.0" etag="iiJQ2Hrs5r39azuBWHxn" version="24.4.0" type="device">
  <diagram name="Страница — 1" id="OWtdvYnWDzClMSKHPV3L">
    <mxGraphModel dx="1461" dy="606" grid="1" gridSize="10" guides="1" tooltips="1" connect="1" arrows="1" fold="1" page="1" pageScale="1" pageWidth="827" pageHeight="1169" math="0" shadow="0">
      <root>
        <mxCell id="0" />
        <mxCell id="1" parent="0" />
        <mxCell id="BmENw5MaQ0u71yADQ0dI-1" value="" style="shape=umlLifeline;perimeter=lifelinePerimeter;whiteSpace=wrap;html=1;container=1;dropTarget=0;collapsible=0;recursiveResize=0;outlineConnect=0;portConstraint=eastwest;newEdgeStyle={&quot;curved&quot;:0,&quot;rounded&quot;:0};participant=umlActor;" vertex="1" parent="1">
          <mxGeometry x="50" y="60" width="25" height="1240" as="geometry" />
        </mxCell>
        <mxCell id="BmENw5MaQ0u71yADQ0dI-2" value=":Страница регистрации" style="shape=umlLifeline;perimeter=lifelinePerimeter;whiteSpace=wrap;html=1;container=1;dropTarget=0;collapsible=0;recursiveResize=0;outlineConnect=0;portConstraint=eastwest;newEdgeStyle={&quot;curved&quot;:0,&quot;rounded&quot;:0};" vertex="1" parent="1">
          <mxGeometry x="180" y="60" width="100" height="330" as="geometry" />
        </mxCell>
        <mxCell id="BmENw5MaQ0u71yADQ0dI-6" value="" style="html=1;points=[[0,0,0,0,5],[0,1,0,0,-5],[1,0,0,0,5],[1,1,0,0,-5]];perimeter=orthogonalPerimeter;outlineConnect=0;targetShapes=umlLifeline;portConstraint=eastwest;newEdgeStyle={&quot;curved&quot;:0,&quot;rounded&quot;:0};" vertex="1" parent="BmENw5MaQ0u71yADQ0dI-2">
          <mxGeometry x="40" y="70" width="10" height="140" as="geometry" />
        </mxCell>
        <mxCell id="BmENw5MaQ0u71yADQ0dI-25" value="" style="shape=umlDestroy;whiteSpace=wrap;html=1;strokeWidth=3;targetShapes=umlLifeline;" vertex="1" parent="BmENw5MaQ0u71yADQ0dI-2">
          <mxGeometry x="35" y="330" width="30" height="30" as="geometry" />
        </mxCell>
        <mxCell id="BmENw5MaQ0u71yADQ0dI-3" value="Любой пользователь" style="text;align=center;fontStyle=1;verticalAlign=middle;spacingLeft=3;spacingRight=3;strokeColor=none;rotatable=0;points=[[0,0.5],[1,0.5]];portConstraint=eastwest;html=1;" vertex="1" parent="1">
          <mxGeometry x="10" y="30" width="160" height="20" as="geometry" />
        </mxCell>
        <mxCell id="BmENw5MaQ0u71yADQ0dI-4" value=":Сервер" style="shape=umlLifeline;perimeter=lifelinePerimeter;whiteSpace=wrap;html=1;container=1;dropTarget=0;collapsible=0;recursiveResize=0;outlineConnect=0;portConstraint=eastwest;newEdgeStyle={&quot;curved&quot;:0,&quot;rounded&quot;:0};" vertex="1" parent="1">
          <mxGeometry x="410" y="60" width="100" height="260" as="geometry" />
        </mxCell>
        <mxCell id="BmENw5MaQ0u71yADQ0dI-8" value="" style="html=1;points=[[0,0,0,0,5],[0,1,0,0,-5],[1,0,0,0,5],[1,1,0,0,-5]];perimeter=orthogonalPerimeter;outlineConnect=0;targetShapes=umlLifeline;portConstraint=eastwest;newEdgeStyle={&quot;curved&quot;:0,&quot;rounded&quot;:0};" vertex="1" parent="BmENw5MaQ0u71yADQ0dI-4">
          <mxGeometry x="44" y="100" width="10" height="90" as="geometry" />
        </mxCell>
        <mxCell id="BmENw5MaQ0u71yADQ0dI-5" value=":База данных" style="shape=umlLifeline;perimeter=lifelinePerimeter;whiteSpace=wrap;html=1;container=1;dropTarget=0;collapsible=0;recursiveResize=0;outlineConnect=0;portConstraint=eastwest;newEdgeStyle={&quot;curved&quot;:0,&quot;rounded&quot;:0};" vertex="1" parent="1">
          <mxGeometry x="600" y="60" width="100" height="260" as="geometry" />
        </mxCell>
        <mxCell id="BmENw5MaQ0u71yADQ0dI-10" value="" style="html=1;points=[[0,0,0,0,5],[0,1,0,0,-5],[1,0,0,0,5],[1,1,0,0,-5]];perimeter=orthogonalPerimeter;outlineConnect=0;targetShapes=umlLifeline;portConstraint=eastwest;newEdgeStyle={&quot;curved&quot;:0,&quot;rounded&quot;:0};" vertex="1" parent="BmENw5MaQ0u71yADQ0dI-5">
          <mxGeometry x="40" y="110" width="10" height="50" as="geometry" />
        </mxCell>
        <mxCell id="BmENw5MaQ0u71yADQ0dI-7" value="Ввод логина и пароля" style="html=1;verticalAlign=bottom;startArrow=oval;endArrow=block;startSize=8;curved=0;rounded=0;entryX=0;entryY=0;entryDx=0;entryDy=5;" edge="1" target="BmENw5MaQ0u71yADQ0dI-6" parent="1" source="BmENw5MaQ0u71yADQ0dI-1">
          <mxGeometry relative="1" as="geometry">
            <mxPoint x="170" y="135" as="sourcePoint" />
          </mxGeometry>
        </mxCell>
        <mxCell id="BmENw5MaQ0u71yADQ0dI-9" value="Запрос на авторизацию пользователя" style="html=1;verticalAlign=bottom;startArrow=oval;endArrow=block;startSize=8;curved=0;rounded=0;entryX=0;entryY=0;entryDx=0;entryDy=5;" edge="1" target="BmENw5MaQ0u71yADQ0dI-8" parent="1">
          <mxGeometry relative="1" as="geometry">
            <mxPoint x="230" y="165" as="sourcePoint" />
          </mxGeometry>
        </mxCell>
        <mxCell id="BmENw5MaQ0u71yADQ0dI-11" value="Запрос в базу данных" style="html=1;verticalAlign=bottom;startArrow=oval;endArrow=block;startSize=8;curved=0;rounded=0;entryX=0;entryY=0;entryDx=0;entryDy=5;" edge="1" target="BmENw5MaQ0u71yADQ0dI-10" parent="1" source="BmENw5MaQ0u71yADQ0dI-4">
          <mxGeometry relative="1" as="geometry">
            <mxPoint x="510" y="175" as="sourcePoint" />
          </mxGeometry>
        </mxCell>
        <mxCell id="BmENw5MaQ0u71yADQ0dI-12" value="" style="endArrow=block;dashed=1;endFill=0;endSize=12;html=1;rounded=0;exitX=0;exitY=1;exitDx=0;exitDy=-5;exitPerimeter=0;" edge="1" parent="1">
          <mxGeometry width="160" relative="1" as="geometry">
            <mxPoint x="640.25" y="220" as="sourcePoint" />
            <mxPoint x="459.75" y="220" as="targetPoint" />
          </mxGeometry>
        </mxCell>
        <mxCell id="BmENw5MaQ0u71yADQ0dI-15" value="Результат запроса" style="text;html=1;align=center;verticalAlign=middle;whiteSpace=wrap;rounded=0;" vertex="1" parent="1">
          <mxGeometry x="520" y="190" width="60" height="30" as="geometry" />
        </mxCell>
        <mxCell id="BmENw5MaQ0u71yADQ0dI-16" value="" style="endArrow=block;dashed=1;endFill=0;endSize=12;html=1;rounded=0;exitX=0;exitY=1;exitDx=0;exitDy=-5;exitPerimeter=0;" edge="1" parent="1" source="BmENw5MaQ0u71yADQ0dI-8" target="BmENw5MaQ0u71yADQ0dI-6">
          <mxGeometry width="160" relative="1" as="geometry">
            <mxPoint x="430.5" y="230" as="sourcePoint" />
            <mxPoint x="250" y="230" as="targetPoint" />
          </mxGeometry>
        </mxCell>
        <mxCell id="BmENw5MaQ0u71yADQ0dI-17" value="Результат запроса" style="text;html=1;align=center;verticalAlign=middle;whiteSpace=wrap;rounded=0;" vertex="1" parent="1">
          <mxGeometry x="310.25" y="210" width="60" height="30" as="geometry" />
        </mxCell>
        <mxCell id="BmENw5MaQ0u71yADQ0dI-18" value="" style="endArrow=block;dashed=1;endFill=0;endSize=12;html=1;rounded=0;exitX=0;exitY=1;exitDx=0;exitDy=-5;exitPerimeter=0;" edge="1" parent="1">
          <mxGeometry width="160" relative="1" as="geometry">
            <mxPoint x="220.25" y="265" as="sourcePoint" />
            <mxPoint x="59.75" y="265" as="targetPoint" />
          </mxGeometry>
        </mxCell>
        <mxCell id="BmENw5MaQ0u71yADQ0dI-19" value="Результат запроса" style="text;html=1;align=center;verticalAlign=middle;whiteSpace=wrap;rounded=0;" vertex="1" parent="1">
          <mxGeometry x="110" y="220" width="60" height="30" as="geometry" />
        </mxCell>
        <mxCell id="BmENw5MaQ0u71yADQ0dI-22" value="Неуспех" style="text;html=1;align=center;verticalAlign=middle;whiteSpace=wrap;rounded=0;" vertex="1" parent="1">
          <mxGeometry x="70" y="320" width="60" height="30" as="geometry" />
        </mxCell>
        <mxCell id="BmENw5MaQ0u71yADQ0dI-23" value="" style="html=1;verticalAlign=bottom;endArrow=block;curved=0;rounded=0;" edge="1" parent="1" source="BmENw5MaQ0u71yADQ0dI-1" target="BmENw5MaQ0u71yADQ0dI-1">
          <mxGeometry x="0.0022" width="80" relative="1" as="geometry">
            <mxPoint x="70" y="320" as="sourcePoint" />
            <mxPoint x="90" y="90" as="targetPoint" />
            <Array as="points">
              <mxPoint x="110" y="320" />
              <mxPoint x="110" y="106" />
            </Array>
            <mxPoint as="offset" />
          </mxGeometry>
        </mxCell>
        <mxCell id="BmENw5MaQ0u71yADQ0dI-24" value="Успех&lt;div&gt;&lt;br&gt;&lt;/div&gt;" style="html=1;verticalAlign=bottom;endArrow=block;curved=0;rounded=0;" edge="1" parent="1">
          <mxGeometry width="80" relative="1" as="geometry">
            <mxPoint x="60" y="410" as="sourcePoint" />
            <mxPoint x="220" y="410" as="targetPoint" />
          </mxGeometry>
        </mxCell>
        <mxCell id="BmENw5MaQ0u71yADQ0dI-26" value=":Страница меню" style="shape=umlLifeline;perimeter=lifelinePerimeter;whiteSpace=wrap;html=1;container=1;dropTarget=0;collapsible=0;recursiveResize=0;outlineConnect=0;portConstraint=eastwest;newEdgeStyle={&quot;curved&quot;:0,&quot;rounded&quot;:0};" vertex="1" parent="1">
          <mxGeometry x="180" y="430" width="100" height="780" as="geometry" />
        </mxCell>
        <mxCell id="BmENw5MaQ0u71yADQ0dI-40" value="" style="html=1;points=[[0,0,0,0,5],[0,1,0,0,-5],[1,0,0,0,5],[1,1,0,0,-5]];perimeter=orthogonalPerimeter;outlineConnect=0;targetShapes=umlLifeline;portConstraint=eastwest;newEdgeStyle={&quot;curved&quot;:0,&quot;rounded&quot;:0};" vertex="1" parent="BmENw5MaQ0u71yADQ0dI-26">
          <mxGeometry x="45" y="90" width="10" height="340" as="geometry" />
        </mxCell>
        <mxCell id="BmENw5MaQ0u71yADQ0dI-37" value="" style="html=1;points=[[0,0,0,0,5],[0,1,0,0,-5],[1,0,0,0,5],[1,1,0,0,-5]];perimeter=orthogonalPerimeter;outlineConnect=0;targetShapes=umlLifeline;portConstraint=eastwest;newEdgeStyle={&quot;curved&quot;:0,&quot;rounded&quot;:0};" vertex="1" parent="BmENw5MaQ0u71yADQ0dI-26">
          <mxGeometry x="45" y="580" width="10" height="180" as="geometry" />
        </mxCell>
        <mxCell id="BmENw5MaQ0u71yADQ0dI-38" value="Навигация" style="html=1;verticalAlign=bottom;endArrow=block;curved=0;rounded=0;entryX=0;entryY=0;entryDx=0;entryDy=5;" edge="1" target="BmENw5MaQ0u71yADQ0dI-37" parent="BmENw5MaQ0u71yADQ0dI-26">
          <mxGeometry relative="1" as="geometry">
            <mxPoint x="-120.5" y="585" as="sourcePoint" />
          </mxGeometry>
        </mxCell>
        <mxCell id="BmENw5MaQ0u71yADQ0dI-27" value="Manager/Admin" style="shape=umlFrame;whiteSpace=wrap;html=1;pointerEvents=0;width=100;height=30;" vertex="1" parent="1">
          <mxGeometry x="20" y="490" width="1050" height="480" as="geometry" />
        </mxCell>
        <mxCell id="BmENw5MaQ0u71yADQ0dI-28" value=":Страницы просмотра информации" style="shape=umlLifeline;perimeter=lifelinePerimeter;whiteSpace=wrap;html=1;container=1;dropTarget=0;collapsible=0;recursiveResize=0;outlineConnect=0;portConstraint=eastwest;newEdgeStyle={&quot;curved&quot;:0,&quot;rounded&quot;:0};" vertex="1" parent="1">
          <mxGeometry x="320" y="430" width="130" height="750" as="geometry" />
        </mxCell>
        <mxCell id="BmENw5MaQ0u71yADQ0dI-43" value="" style="html=1;points=[[0,0,0,0,5],[0,1,0,0,-5],[1,0,0,0,5],[1,1,0,0,-5]];perimeter=orthogonalPerimeter;outlineConnect=0;targetShapes=umlLifeline;portConstraint=eastwest;newEdgeStyle={&quot;curved&quot;:0,&quot;rounded&quot;:0};" vertex="1" parent="BmENw5MaQ0u71yADQ0dI-28">
          <mxGeometry x="60" y="100" width="10" height="110" as="geometry" />
        </mxCell>
        <mxCell id="BmENw5MaQ0u71yADQ0dI-68" value="" style="html=1;points=[[0,0,0,0,5],[0,1,0,0,-5],[1,0,0,0,5],[1,1,0,0,-5]];perimeter=orthogonalPerimeter;outlineConnect=0;targetShapes=umlLifeline;portConstraint=eastwest;newEdgeStyle={&quot;curved&quot;:0,&quot;rounded&quot;:0};" vertex="1" parent="BmENw5MaQ0u71yADQ0dI-28">
          <mxGeometry x="60" y="590" width="10" height="140" as="geometry" />
        </mxCell>
        <mxCell id="BmENw5MaQ0u71yADQ0dI-80" value="" style="shape=umlDestroy;whiteSpace=wrap;html=1;strokeWidth=3;targetShapes=umlLifeline;" vertex="1" parent="BmENw5MaQ0u71yADQ0dI-28">
          <mxGeometry x="50" y="260" width="30" height="30" as="geometry" />
        </mxCell>
        <mxCell id="BmENw5MaQ0u71yADQ0dI-29" value=":Страницы обработки информации" style="shape=umlLifeline;perimeter=lifelinePerimeter;whiteSpace=wrap;html=1;container=1;dropTarget=0;collapsible=0;recursiveResize=0;outlineConnect=0;portConstraint=eastwest;newEdgeStyle={&quot;curved&quot;:0,&quot;rounded&quot;:0};" vertex="1" parent="1">
          <mxGeometry x="510" y="430" width="100" height="370" as="geometry" />
        </mxCell>
        <mxCell id="BmENw5MaQ0u71yADQ0dI-57" value="" style="html=1;points=[[0,0,0,0,5],[0,1,0,0,-5],[1,0,0,0,5],[1,1,0,0,-5]];perimeter=orthogonalPerimeter;outlineConnect=0;targetShapes=umlLifeline;portConstraint=eastwest;newEdgeStyle={&quot;curved&quot;:0,&quot;rounded&quot;:0};" vertex="1" parent="BmENw5MaQ0u71yADQ0dI-29">
          <mxGeometry x="45" y="240" width="10" height="120" as="geometry" />
        </mxCell>
        <mxCell id="BmENw5MaQ0u71yADQ0dI-30" value=":Сервер" style="shape=umlLifeline;perimeter=lifelinePerimeter;whiteSpace=wrap;html=1;container=1;dropTarget=0;collapsible=0;recursiveResize=0;outlineConnect=0;portConstraint=eastwest;newEdgeStyle={&quot;curved&quot;:0,&quot;rounded&quot;:0};" vertex="1" parent="1">
          <mxGeometry x="690" y="430" width="100" height="850" as="geometry" />
        </mxCell>
        <mxCell id="BmENw5MaQ0u71yADQ0dI-51" value="" style="html=1;points=[[0,0,0,0,5],[0,1,0,0,-5],[1,0,0,0,5],[1,1,0,0,-5]];perimeter=orthogonalPerimeter;outlineConnect=0;targetShapes=umlLifeline;portConstraint=eastwest;newEdgeStyle={&quot;curved&quot;:0,&quot;rounded&quot;:0};" vertex="1" parent="BmENw5MaQ0u71yADQ0dI-30">
          <mxGeometry x="40" y="110" width="10" height="80" as="geometry" />
        </mxCell>
        <mxCell id="BmENw5MaQ0u71yADQ0dI-60" value="" style="html=1;points=[[0,0,0,0,5],[0,1,0,0,-5],[1,0,0,0,5],[1,1,0,0,-5]];perimeter=orthogonalPerimeter;outlineConnect=0;targetShapes=umlLifeline;portConstraint=eastwest;newEdgeStyle={&quot;curved&quot;:0,&quot;rounded&quot;:0};" vertex="1" parent="BmENw5MaQ0u71yADQ0dI-30">
          <mxGeometry x="45" y="260" width="10" height="80" as="geometry" />
        </mxCell>
        <mxCell id="BmENw5MaQ0u71yADQ0dI-32" value=":База данных" style="shape=umlLifeline;perimeter=lifelinePerimeter;whiteSpace=wrap;html=1;container=1;dropTarget=0;collapsible=0;recursiveResize=0;outlineConnect=0;portConstraint=eastwest;newEdgeStyle={&quot;curved&quot;:0,&quot;rounded&quot;:0};" vertex="1" parent="1">
          <mxGeometry x="890" y="430" width="100" height="850" as="geometry" />
        </mxCell>
        <mxCell id="BmENw5MaQ0u71yADQ0dI-54" value="" style="html=1;points=[[0,0,0,0,5],[0,1,0,0,-5],[1,0,0,0,5],[1,1,0,0,-5]];perimeter=orthogonalPerimeter;outlineConnect=0;targetShapes=umlLifeline;portConstraint=eastwest;newEdgeStyle={&quot;curved&quot;:0,&quot;rounded&quot;:0};" vertex="1" parent="BmENw5MaQ0u71yADQ0dI-32">
          <mxGeometry x="45" y="130" width="10" height="40" as="geometry" />
        </mxCell>
        <mxCell id="BmENw5MaQ0u71yADQ0dI-63" value="" style="html=1;points=[[0,0,0,0,5],[0,1,0,0,-5],[1,0,0,0,5],[1,1,0,0,-5]];perimeter=orthogonalPerimeter;outlineConnect=0;targetShapes=umlLifeline;portConstraint=eastwest;newEdgeStyle={&quot;curved&quot;:0,&quot;rounded&quot;:0};" vertex="1" parent="BmENw5MaQ0u71yADQ0dI-32">
          <mxGeometry x="45" y="270" width="10" height="50" as="geometry" />
        </mxCell>
        <mxCell id="BmENw5MaQ0u71yADQ0dI-75" value="" style="html=1;points=[[0,0,0,0,5],[0,1,0,0,-5],[1,0,0,0,5],[1,1,0,0,-5]];perimeter=orthogonalPerimeter;outlineConnect=0;targetShapes=umlLifeline;portConstraint=eastwest;newEdgeStyle={&quot;curved&quot;:0,&quot;rounded&quot;:0};" vertex="1" parent="BmENw5MaQ0u71yADQ0dI-32">
          <mxGeometry x="45" y="615" width="10" height="80" as="geometry" />
        </mxCell>
        <mxCell id="BmENw5MaQ0u71yADQ0dI-34" value="Client/Trainer" style="shape=umlFrame;whiteSpace=wrap;html=1;pointerEvents=0;width=100;height=30;" vertex="1" parent="1">
          <mxGeometry x="20" y="969" width="1040" height="281" as="geometry" />
        </mxCell>
        <mxCell id="BmENw5MaQ0u71yADQ0dI-36" value="" style="shape=umlDestroy;whiteSpace=wrap;html=1;strokeWidth=3;targetShapes=umlLifeline;" vertex="1" parent="1">
          <mxGeometry x="545" y="790" width="30" height="30" as="geometry" />
        </mxCell>
        <mxCell id="BmENw5MaQ0u71yADQ0dI-41" value="Навигация" style="html=1;verticalAlign=bottom;endArrow=block;curved=0;rounded=0;entryX=0;entryY=0;entryDx=0;entryDy=5;" edge="1" target="BmENw5MaQ0u71yADQ0dI-40" parent="1" source="BmENw5MaQ0u71yADQ0dI-1">
          <mxGeometry x="0.2145" y="5" relative="1" as="geometry">
            <mxPoint x="155" y="545" as="sourcePoint" />
            <mxPoint x="1" as="offset" />
          </mxGeometry>
        </mxCell>
        <mxCell id="BmENw5MaQ0u71yADQ0dI-42" value="Выход из программы" style="html=1;verticalAlign=bottom;endArrow=open;dashed=1;endSize=8;curved=0;rounded=0;" edge="1" parent="1">
          <mxGeometry relative="1" as="geometry">
            <mxPoint x="55" y="850" as="targetPoint" />
            <mxPoint x="225" y="850" as="sourcePoint" />
          </mxGeometry>
        </mxCell>
        <mxCell id="BmENw5MaQ0u71yADQ0dI-44" value="Переход" style="html=1;verticalAlign=bottom;endArrow=block;curved=0;rounded=0;entryX=0;entryY=0;entryDx=0;entryDy=5;" edge="1" target="BmENw5MaQ0u71yADQ0dI-43" parent="1" source="BmENw5MaQ0u71yADQ0dI-40">
          <mxGeometry relative="1" as="geometry">
            <mxPoint x="310" y="535" as="sourcePoint" />
          </mxGeometry>
        </mxCell>
        <mxCell id="BmENw5MaQ0u71yADQ0dI-45" value="Возврат" style="html=1;verticalAlign=bottom;endArrow=open;dashed=1;endSize=8;curved=0;rounded=0;exitX=0;exitY=1;exitDx=0;exitDy=-5;" edge="1" source="BmENw5MaQ0u71yADQ0dI-43" parent="1" target="BmENw5MaQ0u71yADQ0dI-40">
          <mxGeometry relative="1" as="geometry">
            <mxPoint x="310" y="605" as="targetPoint" />
          </mxGeometry>
        </mxCell>
        <mxCell id="BmENw5MaQ0u71yADQ0dI-52" value="Запрос информации" style="html=1;verticalAlign=bottom;endArrow=block;curved=0;rounded=0;entryX=0;entryY=0;entryDx=0;entryDy=5;" edge="1" target="BmENw5MaQ0u71yADQ0dI-51" parent="1" source="BmENw5MaQ0u71yADQ0dI-43">
          <mxGeometry relative="1" as="geometry">
            <mxPoint x="660" y="535" as="sourcePoint" />
          </mxGeometry>
        </mxCell>
        <mxCell id="BmENw5MaQ0u71yADQ0dI-53" value="Возврат результата" style="html=1;verticalAlign=bottom;endArrow=open;dashed=1;endSize=8;curved=0;rounded=0;exitX=0;exitY=1;exitDx=0;exitDy=-5;" edge="1" source="BmENw5MaQ0u71yADQ0dI-51" parent="1" target="BmENw5MaQ0u71yADQ0dI-43">
          <mxGeometry relative="1" as="geometry">
            <mxPoint x="660" y="605" as="targetPoint" />
          </mxGeometry>
        </mxCell>
        <mxCell id="BmENw5MaQ0u71yADQ0dI-56" value="Возврат результата" style="html=1;verticalAlign=bottom;endArrow=open;dashed=1;endSize=8;curved=0;rounded=0;exitX=0;exitY=1;exitDx=0;exitDy=-5;" edge="1" source="BmENw5MaQ0u71yADQ0dI-54" parent="1" target="BmENw5MaQ0u71yADQ0dI-51">
          <mxGeometry relative="1" as="geometry">
            <mxPoint x="865" y="615" as="targetPoint" />
          </mxGeometry>
        </mxCell>
        <mxCell id="BmENw5MaQ0u71yADQ0dI-55" value="Запрос в базу данных" style="html=1;verticalAlign=bottom;endArrow=block;curved=0;rounded=0;entryX=0;entryY=0;entryDx=0;entryDy=5;" edge="1" target="BmENw5MaQ0u71yADQ0dI-54" parent="1" source="BmENw5MaQ0u71yADQ0dI-51">
          <mxGeometry relative="1" as="geometry">
            <mxPoint x="865" y="545" as="sourcePoint" />
          </mxGeometry>
        </mxCell>
        <mxCell id="BmENw5MaQ0u71yADQ0dI-58" value="Переход" style="html=1;verticalAlign=bottom;endArrow=block;curved=0;rounded=0;entryX=0;entryY=0;entryDx=0;entryDy=5;" edge="1" target="BmENw5MaQ0u71yADQ0dI-57" parent="1" source="BmENw5MaQ0u71yADQ0dI-40">
          <mxGeometry relative="1" as="geometry">
            <mxPoint x="310" y="685" as="sourcePoint" />
          </mxGeometry>
        </mxCell>
        <mxCell id="BmENw5MaQ0u71yADQ0dI-59" value="Возврат" style="html=1;verticalAlign=bottom;endArrow=open;dashed=1;endSize=8;curved=0;rounded=0;exitX=0;exitY=1;exitDx=0;exitDy=-5;" edge="1" source="BmENw5MaQ0u71yADQ0dI-57" parent="1" target="BmENw5MaQ0u71yADQ0dI-40">
          <mxGeometry relative="1" as="geometry">
            <mxPoint x="310" y="755" as="targetPoint" />
          </mxGeometry>
        </mxCell>
        <mxCell id="BmENw5MaQ0u71yADQ0dI-61" value="Запрос редактирования" style="html=1;verticalAlign=bottom;endArrow=block;curved=0;rounded=0;entryX=0;entryY=0;entryDx=0;entryDy=5;" edge="1" target="BmENw5MaQ0u71yADQ0dI-60" parent="1" source="BmENw5MaQ0u71yADQ0dI-57">
          <mxGeometry relative="1" as="geometry">
            <mxPoint x="665" y="695" as="sourcePoint" />
            <mxPoint as="offset" />
          </mxGeometry>
        </mxCell>
        <mxCell id="BmENw5MaQ0u71yADQ0dI-62" value="Возврат результата" style="html=1;verticalAlign=bottom;endArrow=open;dashed=1;endSize=8;curved=0;rounded=0;exitX=0;exitY=1;exitDx=0;exitDy=-5;" edge="1" source="BmENw5MaQ0u71yADQ0dI-60" parent="1" target="BmENw5MaQ0u71yADQ0dI-57">
          <mxGeometry relative="1" as="geometry">
            <mxPoint x="665" y="765" as="targetPoint" />
          </mxGeometry>
        </mxCell>
        <mxCell id="BmENw5MaQ0u71yADQ0dI-64" value="Запрос в базу данных" style="html=1;verticalAlign=bottom;endArrow=block;curved=0;rounded=0;entryX=0;entryY=0;entryDx=0;entryDy=5;" edge="1" target="BmENw5MaQ0u71yADQ0dI-63" parent="1">
          <mxGeometry relative="1" as="geometry">
            <mxPoint x="747" y="705" as="sourcePoint" />
          </mxGeometry>
        </mxCell>
        <mxCell id="BmENw5MaQ0u71yADQ0dI-65" value="Вывод результата" style="html=1;verticalAlign=bottom;endArrow=open;dashed=1;endSize=8;curved=0;rounded=0;exitX=0;exitY=1;exitDx=0;exitDy=-5;" edge="1" source="BmENw5MaQ0u71yADQ0dI-63" parent="1" target="BmENw5MaQ0u71yADQ0dI-30">
          <mxGeometry relative="1" as="geometry">
            <mxPoint x="747" y="775" as="targetPoint" />
          </mxGeometry>
        </mxCell>
        <mxCell id="BmENw5MaQ0u71yADQ0dI-67" value="" style="shape=umlDestroy;whiteSpace=wrap;html=1;strokeWidth=3;targetShapes=umlLifeline;" vertex="1" parent="1">
          <mxGeometry x="215" y="850" width="30" height="30" as="geometry" />
        </mxCell>
        <mxCell id="BmENw5MaQ0u71yADQ0dI-69" value="Переход" style="html=1;verticalAlign=bottom;endArrow=block;curved=0;rounded=0;entryX=0;entryY=0;entryDx=0;entryDy=5;" edge="1" target="BmENw5MaQ0u71yADQ0dI-68" parent="1" source="BmENw5MaQ0u71yADQ0dI-37">
          <mxGeometry relative="1" as="geometry">
            <mxPoint x="250" y="1025" as="sourcePoint" />
          </mxGeometry>
        </mxCell>
        <mxCell id="BmENw5MaQ0u71yADQ0dI-70" value="Возврат" style="html=1;verticalAlign=bottom;endArrow=open;dashed=1;endSize=8;curved=0;rounded=0;exitX=0;exitY=1;exitDx=0;exitDy=-5;" edge="1" source="BmENw5MaQ0u71yADQ0dI-68" parent="1" target="BmENw5MaQ0u71yADQ0dI-37">
          <mxGeometry relative="1" as="geometry">
            <mxPoint x="250" y="1095" as="targetPoint" />
          </mxGeometry>
        </mxCell>
        <mxCell id="BmENw5MaQ0u71yADQ0dI-39" value="Выход из программы" style="html=1;verticalAlign=bottom;endArrow=open;dashed=1;endSize=8;curved=0;rounded=0;exitX=0;exitY=1;exitDx=0;exitDy=-5;" edge="1" source="BmENw5MaQ0u71yADQ0dI-37" parent="1" target="BmENw5MaQ0u71yADQ0dI-1">
          <mxGeometry x="0.003" relative="1" as="geometry">
            <mxPoint x="59.5" y="1125" as="targetPoint" />
            <mxPoint as="offset" />
          </mxGeometry>
        </mxCell>
        <mxCell id="BmENw5MaQ0u71yADQ0dI-72" value="" style="html=1;points=[[0,0,0,0,5],[0,1,0,0,-5],[1,0,0,0,5],[1,1,0,0,-5]];perimeter=orthogonalPerimeter;outlineConnect=0;targetShapes=umlLifeline;portConstraint=eastwest;newEdgeStyle={&quot;curved&quot;:0,&quot;rounded&quot;:0};" vertex="1" parent="1">
          <mxGeometry x="735" y="1030" width="10" height="110" as="geometry" />
        </mxCell>
        <mxCell id="BmENw5MaQ0u71yADQ0dI-73" value="Запрос информации" style="html=1;verticalAlign=bottom;endArrow=block;curved=0;rounded=0;entryX=0;entryY=0;entryDx=0;entryDy=5;" edge="1" target="BmENw5MaQ0u71yADQ0dI-72" parent="1" source="BmENw5MaQ0u71yADQ0dI-68">
          <mxGeometry relative="1" as="geometry">
            <mxPoint x="665" y="1035" as="sourcePoint" />
          </mxGeometry>
        </mxCell>
        <mxCell id="BmENw5MaQ0u71yADQ0dI-74" value="Возврат результата" style="html=1;verticalAlign=bottom;endArrow=open;dashed=1;endSize=8;curved=0;rounded=0;exitX=0;exitY=1;exitDx=0;exitDy=-5;" edge="1" source="BmENw5MaQ0u71yADQ0dI-72" parent="1" target="BmENw5MaQ0u71yADQ0dI-68">
          <mxGeometry x="0.0029" relative="1" as="geometry">
            <mxPoint x="665" y="1105" as="targetPoint" />
            <mxPoint as="offset" />
          </mxGeometry>
        </mxCell>
        <mxCell id="BmENw5MaQ0u71yADQ0dI-76" value="Запрос в базу данных" style="html=1;verticalAlign=bottom;endArrow=block;curved=0;rounded=0;entryX=0;entryY=0;entryDx=0;entryDy=5;" edge="1" target="BmENw5MaQ0u71yADQ0dI-75" parent="1" source="BmENw5MaQ0u71yADQ0dI-72">
          <mxGeometry relative="1" as="geometry">
            <mxPoint x="865" y="1050" as="sourcePoint" />
          </mxGeometry>
        </mxCell>
        <mxCell id="BmENw5MaQ0u71yADQ0dI-77" value="Возврат результата" style="html=1;verticalAlign=bottom;endArrow=open;dashed=1;endSize=8;curved=0;rounded=0;exitX=0;exitY=1;exitDx=0;exitDy=-5;" edge="1" source="BmENw5MaQ0u71yADQ0dI-75" parent="1" target="BmENw5MaQ0u71yADQ0dI-72">
          <mxGeometry relative="1" as="geometry">
            <mxPoint x="865" y="1120" as="targetPoint" />
          </mxGeometry>
        </mxCell>
        <mxCell id="BmENw5MaQ0u71yADQ0dI-78" value="" style="shape=umlDestroy;whiteSpace=wrap;html=1;strokeWidth=3;targetShapes=umlLifeline;" vertex="1" parent="1">
          <mxGeometry x="215" y="1200" width="30" height="30" as="geometry" />
        </mxCell>
        <mxCell id="BmENw5MaQ0u71yADQ0dI-79" value="" style="shape=umlDestroy;whiteSpace=wrap;html=1;strokeWidth=3;targetShapes=umlLifeline;" vertex="1" parent="1">
          <mxGeometry x="370" y="1170" width="30" height="30" as="geometry" />
        </mxCell>
        <mxCell id="BmENw5MaQ0u71yADQ0dI-81" value="" style="shape=umlDestroy;whiteSpace=wrap;html=1;strokeWidth=3;targetShapes=umlLifeline;" vertex="1" parent="1">
          <mxGeometry x="47.5" y="1290" width="30" height="30" as="geometry" />
        </mxCell>
      </root>
    </mxGraphModel>
  </diagram>
</mxfile>
